<?xml version="1.0" encoding="utf-8"?>
<!-- Generator: Adobe Illustrator 23.0.4, SVG Export Plug-In . SVG Version: 6.00 Build 0)  -->
<svg version="1.1" id="Camada_1" xmlns="http://www.w3.org/2000/svg" xmlns:xlink="http://www.w3.org/1999/xlink" x="0px" y="0px"
	 viewBox="0 0 4096 1308.4" style="enable-background:new 0 0 4096 1308.4;" xml:space="preserve">
<style type="text/css">
	.st0{fill:#FD8E18;}
	.st1{fill:#4E4D4C;}
</style>
<path class="st0" d="M893.7,783.7c-9.2-48.6-33.2-88.7-72.8-119c-12.3-9.4-25.7-16.9-40.3-23.5c0.9-0.9,1-1.1,1.2-1.1
	c1.5-1,3.1-1.9,4.7-2.8c40.2-25.3,69.3-59.4,84-105c12-37.5,12.8-75.8,6.8-114.3c-9.9-62.8-41.5-110.9-96.9-142.7
	c-44.6-25.6-93.6-34.7-144.1-37c-29-1.3-58.1-0.8-87.1-0.8c-66.5-0.1-133,0.3-199.5-0.1c-27.9-0.1-48.5,18.5-48.4,47.9
	c0.7,246.5,0.6,492.9,0.1,739.3c-0.1,24.9,22.3,44.6,44.6,44.2c28.6-0.5,57.2,0.1,85.8-0.1c76.2-0.6,152.4,1.8,228.6-1.3
	c36-1.5,71.1-8.4,104.7-21.8c52.3-20.9,92.9-54.6,114.9-107.6C900.8,888,903.7,836.3,893.7,783.7z M380.3,601.1
	c0.1-47,0.1-93.9,0.1-140.8s0-93.9-0.1-140.9c0-4,0-6.6,5.6-6.6c80.8,0.3,161.5-0.2,242.2,0.8c36.9,0.5,73.1,6.7,106.5,23.9
	c37.9,19.5,58.3,51.2,63.5,92.9c3.4,26.8,2.4,53.5-5.8,79.4c-14,44.2-45.8,70.5-88.5,85.1c-27.7,9.5-56.5,13.4-85.6,13.5
	c-76.9,0.4-153.8,0-230.7,0.3C381.1,608.8,380.2,606.8,380.3,601.1z M812.8,889.9c-10.6,44.4-38.7,72.7-81,87.7
	c-31.1,11-63.4,15.2-96.2,15.3c-82.4,0.3-164.7,0-247.1,0.2c-6.7,0-8.2-1.9-8.1-8.3c0.2-48.6,0.1-97.4,0.1-146.2
	c0-48.3,0.1-96.7-0.1-145c-0.1-6.5,1-8.8,8.3-8.8c81.3,0.3,162.5-0.2,243.7,0.3c36.9,0.3,73.3,5.1,107.3,20.7
	c45.1,20.7,69.6,56.5,76.3,104.9C819.4,837.3,818.9,863.8,812.8,889.9z"/>
<path class="st0" d="M1846.9,383.3c-1.3,2.6-0.6,5.3-0.6,7.9c-0.1,213.3,0,426.6-0.1,639.9c0,17.3-5.8,31.7-22.3,39.7
	c-24.1,11.5-49.9-3.4-52.4-29.9c-0.5-4.9-0.7-9.9-0.7-14.9c0-249.4,0-498.7-0.1-748.2c0-5.2,0.2-10.5,1.4-15.6
	c3.5-14.6,11.9-25,26.8-28.7c14.9-3.8,28.9-2.3,40,9.9c15.3,16.8,27.7,35.8,41.1,54.1c151.6,206.6,303.1,413.3,454.6,619.9
	c1.2,1.6,2.4,3.1,4.7,6.1c0-4.3,0-6.9,0-9.5c0-212.6,0-425.2-0.1-637.9c0-6.9,0.6-13.5,3.1-20c6.9-17.7,23.1-26.8,42.5-23.8
	c17.2,2.7,28.3,15.9,29.4,34.9c0.1,2,0.1,4.1,0.1,6.1c0,252.8,0,505.6,0,758.4c0,16.9-5.8,30.8-21.7,38.5
	c-17.2,8.4-36.4,4.1-48.1-11.5c-30.1-40.3-59.9-80.9-89.7-121.5c-134.7-183.3-269.3-366.6-404.1-549.8
	C1849.9,386.2,1849.2,384.1,1846.9,383.3z"/>
<path class="st0" d="M3431.2,653.1c0-126.8,0-253.7,0-380.5c0-30.9,28.6-49.7,56.2-36.9c16.7,7.7,22,22.5,22.4,39.7
	c0.2,9.5,0.1,19,0.1,28.6c0,99.4,0.1,198.8-0.1,298.2c0,6.7,1.8,8.1,8.3,8.1c163.8-0.2,327.7-0.2,491.5,0c6.5,0,8.3-1.5,8.2-8.1
	c-0.2-108.2-0.2-216.5-0.1-324.7c0-4.9,0.3-10.1,1.3-14.9c4.4-19.9,21.1-32.1,41.5-30.4c20.1,1.7,34.5,16.7,35.6,37.2
	c0.1,2,0.1,4.1,0.1,6.1c0,252.1,0,504.2,0,756.3c0,21.5-10.4,36.7-28.3,41.3c-26.7,6.9-48.8-10.2-50.3-39.1
	c-0.1-2.3-0.1-4.5-0.1-6.8c0-111.6-0.1-223.3,0.1-334.9c0-6.8-1.5-8.6-8.5-8.6c-163.6,0.2-327.2,0.2-490.8,0c-6.9,0-8.6,1.7-8.5,8.6
	c0.2,112.1,0.1,224.2,0.1,336.3c0,12.3-1.9,24-10.6,33.5c-10.5,11.6-27.5,15.7-43.1,9.9c-15.5-5.7-22.9-17.6-24.9-33.5
	c-0.3-2.7-0.1-5.4-0.1-8.1C3431.2,904.5,3431.2,778.8,3431.2,653.1z"/>
<path class="st0" d="M1086.7,653.2c0-122.7,0.6-245.5-0.4-368.2c-0.2-28.1,19.4-48,48.1-47.6c24.7,0.3,49.5,0.1,74.2,0.1
	c118,0,236,0.1,353.9-0.1c16.5,0,30.1,4.9,37.2,20.9c11.8,26.9-5.4,55-34.6,54.9c-130.4-0.6-260.9-0.1-391.4-0.4
	c-7,0-8.4,1.9-8.4,8.6c0.2,93.5,0.3,187,0,280.5c0,7.2,2,8.3,8.6,8.3c123.6-0.2,247.3-0.1,371-0.1c19.4,0,33.3,12.5,35.8,32.1
	c2.4,19.4-8.4,36.7-26.1,41.7c-4.4,1.3-9,1.2-13.5,1.2c-122.5,0-245,0.1-367.6-0.1c-6.6,0-8.2,1.7-8.1,8.2c0.2,97.3,0.2,194.7,0,292
	c0,6.7,1.7,8.2,8.3,8.1c129.5-0.2,259.1-0.1,388.7-0.1c12.2,0,23.7,1.8,32.1,11.7c11,13,11.8,27.8,5.6,42.7
	c-5.9,14.1-17.4,21-32.8,21c-145.4,0-290.9-0.1-436.3,0.1c-23.1,0-44.5-20-44.3-44.5C1087.1,900.5,1086.7,776.8,1086.7,653.2z"/>
<path class="st1" d="M2599.3,652.2c0.1-69.9,9.2-138.3,35.6-203.6c31.1-77,80.8-137.9,154.7-177.7c45.6-24.6,94.7-37,146.1-40.9
	c58.1-4.4,114.9,1.7,170.2,20.4c52.2,17.7,99.2,44.3,138.3,83.6c14.1,14.2,20.2,31.1,15.4,50.8c-5.3,22.2-26,31.5-46.6,21.5
	c-5.6-2.7-10.3-6.7-14.9-10.6c-26.1-21.9-53.5-41.9-83.7-58c-38.3-20.5-79.7-29.2-122.7-31.3c-39.9-1.9-79.2,1-117.7,12.7
	c-68.7,20.9-117.6,65.3-150.4,128.2c-21.9,42.1-33.1,87.5-38.4,134.4c-5.5,47.7-5.5,95.5,0.1,143.1c7.2,62,24.1,120.7,61.5,172
	c40.3,55.2,94.8,87.3,161.8,98.1c55.7,8.9,111.2,7.4,165.5-9.5c38.9-12.1,72.1-34.7,104-59.1c6.8-5.2,13.4-10.8,20.1-16.2
	c2.5-1.9,5-4,7.6-5.7c12.6-8.1,25.8-13.5,39.8-3.7c14,9.9,17,24.4,14.7,40.5c-1.7,12.4-7.8,22.5-16.5,31.3
	c-37.1,37-81,63.1-130.2,80.4c-89,31.5-179.1,34.1-268.9,5.6c-98.1-31.3-165-97.8-205.7-191.4c-19.4-44.6-30.4-91.3-35.8-139.6
	C2600.6,702.5,2599.2,677.4,2599.3,652.2z"/>
<path class="st1" d="M17.9,774.6c0-85.3,0-170.6,0-255.9c0-20.6,9.9-35.1,27.2-40.1c27.5-7.9,51.5,9.9,51.5,38.4
	c0.1,172.2,0,344.4,0,516.5c0,20-10.8,35-28.1,39.3c-19.1,4.8-37.4-2.4-45.6-18.1c-4-7.6-5.1-15.8-5.1-24.4
	C17.9,945.2,17.9,859.9,17.9,774.6z"/>
<path class="st1" d="M0,315.3c0-33.4,24.3-57.6,57.5-57.3c33.5,0.3,57.4,24.2,57.3,57.6c0,32.1-24.7,56.3-57.3,56.3
	C24.6,372,0,347.8,0,315.3z"/>
<path class="st1" d="M3025.6,57.1c0,31.5-25.9,57.2-57.8,57.3c-32.2,0.1-58.1-25.8-57.9-57.8c0.1-31,26.2-56.5,57.8-56.6
	C2999.6-0.1,3025.6,25.6,3025.6,57.1z"/>
<path class="st1" d="M3025.6,1251c0.1,31.6-25.8,57.4-57.6,57.4c-32.2,0.1-58.2-25.6-58.1-57.6c0.1-31,26-56.7,57.6-56.7
	C2999.4,1194,3025.6,1219.5,3025.6,1251z"/>
</svg>
